<svg width="243" height="171" viewBox="0 0 243 171" fill="none" xmlns="http://www.w3.org/2000/svg">
<path fill-rule="evenodd" clip-rule="evenodd" d="M230.686 169H11.8992C5.53043 154.393 2 138.26 2 121.3C2 55.3 55.3 2 121.3 2C187.2 2 240.6 55.3 240.6 121.3C240.6 138.26 237.063 154.393 230.686 169Z" fill="black"/>
<path d="M11.8992 169L10.5242 169.599L10.9168 170.5H11.8992V169ZM230.686 169V170.5H231.668L232.061 169.6L230.686 169ZM11.8992 170.5H230.686V167.5H11.8992V170.5ZM13.2742 168.401C6.9864 153.979 3.5 138.05 3.5 121.3H0.5C0.5 138.47 4.07445 154.807 10.5242 169.599L13.2742 168.401ZM3.5 121.3C3.5 56.1284 56.1284 3.5 121.3 3.5V0.5C54.4716 0.5 0.5 54.4716 0.5 121.3H3.5ZM121.3 3.5C186.372 3.5 239.1 56.1292 239.1 121.3H242.1C242.1 54.4707 188.028 0.5 121.3 0.5V3.5ZM239.1 121.3C239.1 138.05 235.607 153.978 229.311 168.4L232.061 169.6C238.519 154.807 242.1 138.471 242.1 121.3H239.1Z" fill="#FFB62E"/>
</svg>
